# xmcd CD database file
#
# Track frame offsets:
#	150
#	9082
#	30400
#	51062
#	67140
#	80152
#	95392
#	123235
#	142002
#	162265
#	176670
#	191660
#	226240
#	249772
#	269832
#	289290
#	311615
#
# Disc length: 4491 seconds
#
# Revision: 0
# Processed by: cddbd v1.5.1PL0 Copyright (c) Steve Scherf et al.
# Submitted via: CDex 1.60beta1
#
DISCID=ec118911
DTITLE=大塚まさじ - THE LIVE Best Of Masaji
DYEAR=1992
DGENRE=Vocal
TTITLE0=The Live
TTITLE1=君の窓から
TTITLE2=サーカスにはピエロが
TTITLE3=満月を待つ女
TTITLE4=風景
TTITLE5=果てしなき旅
TTITLE6=こんな月夜に
TTITLE7=運命をかえるんだ
TTITLE8=メトロ
TTITLE9=4BEAT MEDLEY
TTITLE10=アフリカの月
TTITLE11=僕の女王様
TTITLE12=街暮し
TTITLE13=フカフカ
TTITLE14=最後のさすらい
TTITLE15=うた
TTITLE16=天王寺想い出通り
EXTD=YEAR: 1992
EXTT0=
EXTT1=
EXTT2=
EXTT3=
EXTT4=
EXTT5=
EXTT6=
EXTT7=
EXTT8=
EXTT9=
EXTT10=
EXTT11=
EXTT12=
EXTT13=
EXTT14=
EXTT15=
EXTT16=
PLAYORDER=
